<mxfile host="app.diagrams.net" modified="2024-01-09T09:25:59.366Z" agent="Mozilla/5.0 (Windows NT 10.0; Win64; x64; rv:121.0) Gecko/20100101 Firefox/121.0" version="22.1.17" etag="0_GNw9lZBV4Cc2pqPsfI" type="github">
  <diagram name="Page-1" id="QO6nXZj6gMjjCw0T_CZy">
    <mxGraphModel>
      <root>
        <mxCell id="0" />
        <mxCell id="1" parent="0" />
      </root>
    </mxGraphModel>
  </diagram>
</mxfile>
